# xmcd
#
# Track frame offsets:
#	150
#	10515
#	26422
#	36112
#	55995
#	68375
#	79045
#	93277
#	106632
#	121675
#
# Disc length: 1775 seconds
#
# Revision: 1
# Processed by: cddbd v1.4PL0 Copyright (c) Steve Scherf et al.
# Submitted via: audiograbber 1.82.02
#
DISCID=6006ed0a
DTITLE=Rattlesnake Annie - Rattlesnakes and Rusty Water
DYEAR=1900
DGENRE=Country
TTITLE0=Good Ole Country Music
TTITLE1=Carolina Blue
TTITLE2=Rattlesnake Mama
TTITLE3=Goodbye To A River
TTITLE4=Gypsy Lady
TTITLE5=Lay Me A Rail For The Road
TTITLE6=Blue Flame Café
TTITLE7=Tellico Plains
TTITLE8=My Mother's Name Is Victory
TTITLE9=Rattlesnakes and Rusty Water
EXTD=
EXTT0=
EXTT1=
EXTT2=
EXTT3=
EXTT4=
EXTT5=
EXTT6=
EXTT7=
EXTT8=
EXTT9=
PLAYORDER=
